<svg width="76" height="76" viewBox="0 0 76 76" fill="none" xmlns="http://www.w3.org/2000/svg">
<path d="M61.6497 30.152C59.7779 29.396 57.5101 29.252 56.1063 30.692L30.6568 56.108C29.253 57.512 29.361 59.816 30.1169 61.652C30.5489 62.732 30.6928 63.812 30.6928 65C30.6928 67.3869 29.7447 69.6761 28.0571 71.364C26.3694 73.0518 24.0805 74 21.6937 74C19.307 74 17.0181 73.0518 15.3304 71.364C13.6428 69.6761 12.6946 67.3869 12.6946 65C12.6946 64.064 11.8307 63.2 10.8948 63.2C9.57288 63.1847 8.27055 62.8783 7.08043 62.3025C5.89032 61.7268 4.84167 60.8959 4.00904 59.8689C3.17641 58.8419 2.58027 57.644 2.26299 56.3605C1.94572 55.077 1.91511 53.7393 2.17335 52.4426C2.43159 51.1459 2.97233 49.922 3.75711 48.858C4.5419 47.794 5.55145 46.916 6.71399 46.2864C7.87652 45.6569 9.16348 45.2912 10.4833 45.2154C11.8032 45.1396 13.1235 45.3556 14.3505 45.848C16.1503 46.604 18.4541 46.748 19.8579 45.308L45.3074 19.892C46.7112 18.488 46.6032 16.184 45.8473 14.348C45.4154 13.268 45.0914 12.188 45.0914 11C45.0914 8.61305 46.0395 6.32387 47.7272 4.63604C49.4148 2.94821 51.7038 2 54.0905 2C56.4772 2 58.7662 2.94821 60.4538 4.63604C62.1415 6.32387 63.0896 8.61305 63.0896 11C63.1256 11.936 63.9535 12.764 64.8894 12.8C66.2204 12.7835 67.5386 13.0625 68.7487 13.617C69.9589 14.1714 71.0311 14.9874 71.8879 16.0062C72.7447 17.025 73.3648 18.2212 73.7036 19.5086C74.0424 20.7961 74.0914 22.1426 73.8471 23.4513C73.6028 24.7599 73.0712 25.998 72.2907 27.0764C71.5102 28.1548 70.5002 29.0466 69.3335 29.6876C68.1668 30.3285 66.8725 30.7026 65.5438 30.7829C64.2151 30.8632 62.8851 30.6477 61.6497 30.152Z" fill="#5188DB" stroke="#5188DB" stroke-width="4" stroke-linecap="round" stroke-linejoin="round"/>
</svg>
