<svg width="24" height="24" viewBox="0 0 24 24" fill="none" xmlns="http://www.w3.org/2000/svg">
<path d="M12.8914 0.392727C12.779 0.26903 12.6419 0.170198 12.4891 0.102567C12.3362 0.0349358 12.1709 0 12.0037 0C11.8366 0 11.6713 0.0349358 11.5184 0.102567C11.3655 0.170198 11.2285 0.26903 11.1161 0.392727L0.320054 12.3883C0.160857 12.5599 0.0553641 12.7744 0.0165784 13.0053C-0.0222073 13.2361 0.00740946 13.4733 0.101778 13.6876C0.196146 13.9018 0.351142 14.0838 0.547659 14.211C0.744177 14.3382 0.973626 14.4051 1.20773 14.4035H3.60684V22.8004C3.60684 23.1186 3.73322 23.4237 3.95818 23.6487C4.18314 23.8736 4.48825 24 4.8064 24H19.2011C19.5192 24 19.8243 23.8736 20.0493 23.6487C20.2742 23.4237 20.4006 23.1186 20.4006 22.8004V14.4035H22.7997C23.1179 14.4035 23.423 14.2772 23.648 14.0522C23.8729 13.8272 23.9993 13.5221 23.9993 13.204C24.0015 12.9026 23.8902 12.6113 23.6874 12.3883L12.8914 0.392727Z" fill="white"/>
</svg>
