<svg width="144" height="150" viewBox="0 0 144 150" fill="none" xmlns="http://www.w3.org/2000/svg">
<path d="M29.7365 126.536V149H24.2645V135.528L19.2405 149H14.8245L9.7685 135.496V149H4.2965V126.536H10.7605L17.0645 142.088L23.3045 126.536H29.7365ZM50.5035 139.784C50.5035 140.296 50.4715 140.829 50.4075 141.384H38.0235C38.1088 142.493 38.4608 143.347 39.0795 143.944C39.7195 144.52 40.4982 144.808 41.4155 144.808C42.7808 144.808 43.7302 144.232 44.2635 143.08H50.0875C49.7888 144.253 49.2448 145.309 48.4555 146.248C47.6875 147.187 46.7168 147.923 45.5435 148.456C44.3702 148.989 43.0582 149.256 41.6075 149.256C39.8582 149.256 38.3008 148.883 36.9355 148.136C35.5702 147.389 34.5035 146.323 33.7355 144.936C32.9675 143.549 32.5835 141.928 32.5835 140.072C32.5835 138.216 32.9568 136.595 33.7035 135.208C34.4715 133.821 35.5382 132.755 36.9035 132.008C38.2688 131.261 39.8368 130.888 41.6075 130.888C43.3355 130.888 44.8715 131.251 46.2155 131.976C47.5595 132.701 48.6048 133.736 49.3515 135.08C50.1195 136.424 50.5035 137.992 50.5035 139.784ZM44.9035 138.344C44.9035 137.405 44.5835 136.659 43.9435 136.104C43.3035 135.549 42.5035 135.272 41.5435 135.272C40.6262 135.272 39.8475 135.539 39.2075 136.072C38.5888 136.605 38.2048 137.363 38.0555 138.344H44.9035ZM52.3023 140.04C52.3023 138.205 52.6436 136.595 53.3263 135.208C54.0303 133.821 54.9796 132.755 56.1743 132.008C57.3689 131.261 58.7023 130.888 60.1743 130.888C61.4329 130.888 62.5316 131.144 63.4703 131.656C64.4303 132.168 65.1663 132.84 65.6783 133.672V131.144H71.1503V149H65.6783V146.472C65.1449 147.304 64.3983 147.976 63.4383 148.488C62.4996 149 61.4009 149.256 60.1423 149.256C58.6916 149.256 57.3689 148.883 56.1743 148.136C54.9796 147.368 54.0303 146.291 53.3263 144.904C52.6436 143.496 52.3023 141.875 52.3023 140.04ZM65.6783 140.072C65.6783 138.707 65.2943 137.629 64.5263 136.84C63.7796 136.051 62.8623 135.656 61.7743 135.656C60.6863 135.656 59.7583 136.051 58.9903 136.84C58.2436 137.608 57.8703 138.675 57.8703 140.04C57.8703 141.405 58.2436 142.493 58.9903 143.304C59.7583 144.093 60.6863 144.488 61.7743 144.488C62.8623 144.488 63.7796 144.093 64.5263 143.304C65.2943 142.515 65.6783 141.437 65.6783 140.072ZM92.229 133.768C92.229 135.069 91.9303 136.264 91.333 137.352C90.7357 138.419 89.8183 139.283 88.581 139.944C87.3437 140.605 85.8077 140.936 83.973 140.936H80.581V149H75.109V126.536H83.973C85.765 126.536 87.2797 126.845 88.517 127.464C89.7543 128.083 90.6823 128.936 91.301 130.024C91.9197 131.112 92.229 132.36 92.229 133.768ZM83.557 136.584C84.6023 136.584 85.381 136.339 85.893 135.848C86.405 135.357 86.661 134.664 86.661 133.768C86.661 132.872 86.405 132.179 85.893 131.688C85.381 131.197 84.6023 130.952 83.557 130.952H80.581V136.584H83.557ZM111.91 139.784C111.91 140.296 111.878 140.829 111.814 141.384H99.4298C99.5151 142.493 99.8671 143.347 100.486 143.944C101.126 144.52 101.904 144.808 102.822 144.808C104.187 144.808 105.136 144.232 105.67 143.08H111.494C111.195 144.253 110.651 145.309 109.862 146.248C109.094 147.187 108.123 147.923 106.95 148.456C105.776 148.989 104.464 149.256 103.014 149.256C101.264 149.256 99.7071 148.883 98.3418 148.136C96.9764 147.389 95.9098 146.323 95.1418 144.936C94.3738 143.549 93.9898 141.928 93.9898 140.072C93.9898 138.216 94.3631 136.595 95.1098 135.208C95.8778 133.821 96.9444 132.755 98.3098 132.008C99.6751 131.261 101.243 130.888 103.014 130.888C104.742 130.888 106.278 131.251 107.622 131.976C108.966 132.701 110.011 133.736 110.758 135.08C111.526 136.424 111.91 137.992 111.91 139.784ZM106.31 138.344C106.31 137.405 105.99 136.659 105.35 136.104C104.71 135.549 103.91 135.272 102.95 135.272C102.032 135.272 101.254 135.539 100.614 136.072C99.9951 136.605 99.6111 137.363 99.4618 138.344H106.31ZM124.749 144.36V149H121.965C119.981 149 118.434 148.52 117.325 147.56C116.215 146.579 115.661 144.989 115.661 142.792V135.688H113.485V131.144H115.661V126.792H121.133V131.144H124.717V135.688H121.133V142.856C121.133 143.389 121.261 143.773 121.517 144.008C121.773 144.243 122.199 144.36 122.797 144.36H124.749ZM132.917 144.488H140.661V149H126.805V144.648L134.229 135.656H126.868V131.144H140.501V135.496L132.917 144.488Z" fill="white"/>
<path d="M106.818 43.446C104.062 42.333 100.723 42.121 98.6565 44.241L61.1892 81.659C59.1224 83.726 59.2814 87.118 60.3943 89.821C61.0303 91.411 61.2422 93.001 61.2422 94.75C61.2422 98.2641 59.8464 101.634 57.3618 104.119C54.8772 106.604 51.5073 108 47.9936 108C44.4798 108 41.1099 106.604 38.6253 104.119C36.1407 101.634 34.7449 98.2641 34.7449 94.75C34.7449 93.372 33.473 92.1 32.0952 92.1C30.149 92.0774 28.2316 91.6263 26.4795 90.7787C24.7274 89.9311 23.1836 88.7078 21.9578 87.1958C20.7319 85.6839 19.8543 83.9204 19.3872 82.0307C18.9201 80.1411 18.875 78.1717 19.2552 76.2627C19.6354 74.3537 20.4315 72.5519 21.5869 70.9854C22.7422 69.419 24.2285 68.1263 25.94 67.1995C27.6515 66.2726 29.5462 65.7342 31.4894 65.6227C33.4325 65.5111 35.3763 65.8291 37.1826 66.554C39.8324 67.667 43.224 67.879 45.2908 65.759L82.7581 28.341C84.8249 26.274 84.6659 22.882 83.553 20.179C82.9171 18.589 82.4401 16.999 82.4401 15.25C82.4401 11.7359 83.836 8.36569 86.3206 5.88084C88.8052 3.39598 92.175 2 95.6888 2C99.2026 2 102.572 3.39598 105.057 5.88084C107.542 8.36569 108.937 11.7359 108.937 15.25C108.99 16.628 110.209 17.847 111.587 17.9C113.547 17.8757 115.487 18.2865 117.269 19.1027C119.051 19.919 120.629 21.1203 121.89 22.6203C123.152 24.1202 124.065 25.8813 124.564 27.7766C125.062 29.672 125.135 31.6544 124.775 33.581C124.415 35.5076 123.633 37.3304 122.484 38.9181C121.334 40.5057 119.848 41.8187 118.13 42.7623C116.412 43.7059 114.507 44.2566 112.551 44.3749C110.594 44.4931 108.636 44.1758 106.818 43.446V43.446Z" stroke="white" stroke-width="4" stroke-linecap="round" stroke-linejoin="round"/>
</svg>
