<svg width="171" height="171" viewBox="0 0 171 171" fill="none" xmlns="http://www.w3.org/2000/svg">
<path d="M140.354 67.297C136.013 65.5435 130.753 65.2095 127.497 68.5495L68.468 127.501C65.2118 130.757 65.4623 136.101 67.2156 140.36C68.2175 142.865 68.5514 145.37 68.5514 148.125C68.5514 153.661 66.3523 158.971 62.4379 162.886C58.5235 166.801 53.2144 169 47.6785 169C42.1427 169 36.8336 166.801 32.9192 162.886C29.0047 158.971 26.8056 153.661 26.8056 148.125C26.8056 145.954 24.8018 143.95 22.6311 143.95C19.5649 143.914 16.5442 143.204 13.7838 141.868C11.0234 140.533 8.59109 138.606 6.65986 136.224C4.72862 133.842 3.34589 131.063 2.61 128.086C1.8741 125.109 1.80311 122.006 2.40208 118.999C3.00105 115.991 4.25526 113.153 6.07552 110.685C7.89579 108.217 10.2374 106.18 12.9338 104.72C15.6303 103.26 18.6153 102.411 21.6766 102.236C24.738 102.06 27.8004 102.561 30.6462 103.703C34.8208 105.457 40.1643 105.791 43.4205 102.451L102.449 43.4995C105.705 40.243 105.455 34.899 103.701 30.6405C102.7 28.1355 101.948 25.6305 101.948 22.875C101.948 17.3386 104.147 12.029 108.062 8.11415C111.976 4.19932 117.285 2 122.821 2C128.357 2 133.666 4.19932 137.58 8.11415C141.495 12.029 143.694 17.3386 143.694 22.875C143.777 25.046 145.698 26.9665 147.869 27.05C150.956 27.0117 154.013 27.6589 156.82 28.9449C159.627 30.2308 162.114 32.1236 164.101 34.4866C166.088 36.8497 167.527 39.6242 168.313 42.6103C169.098 45.5964 169.212 48.7197 168.645 51.755C168.079 54.7903 166.846 57.6621 165.035 60.1634C163.225 62.6647 160.882 64.7332 158.176 66.2198C155.47 67.7064 152.468 68.5741 149.386 68.7604C146.304 68.9467 143.22 68.4469 140.354 67.297V67.297Z" stroke="white" stroke-width="4" stroke-linecap="round" stroke-linejoin="round"/>
</svg>
