<svg width="26" height="23" viewBox="0 0 26 23" fill="none" xmlns="http://www.w3.org/2000/svg">
<path d="M25.371 4.71339C24.9676 3.79104 24.3859 2.95521 23.6585 2.25269C22.9306 1.54808 22.0723 0.988137 21.1304 0.603309C20.1537 0.202681 19.1062 -0.0023828 18.0486 2.08888e-05C16.5649 2.08888e-05 15.1172 0.401222 13.8592 1.15905C13.5583 1.34033 13.2724 1.53945 13.0015 1.75639C12.7306 1.53945 12.4447 1.34033 12.1438 1.15905C10.8857 0.401222 9.43812 2.08888e-05 7.95438 2.08888e-05C6.88597 2.08888e-05 5.85067 0.202108 4.87255 0.603309C3.92753 0.989651 3.07581 1.54539 2.34448 2.25269C1.61615 2.95441 1.03433 3.79044 0.632017 4.71339C0.213682 5.6733 0 6.69265 0 7.74172C0 8.73135 0.204653 9.76259 0.61095 10.8117C0.951035 11.6884 1.43859 12.5977 2.06158 13.516C3.04873 14.9693 4.40606 16.4849 6.09144 18.0214C8.88435 20.5683 11.6502 22.3276 11.7676 22.3989L12.4808 22.8507C12.7968 23.0498 13.2031 23.0498 13.5191 22.8507L14.2324 22.3989C14.3498 22.3246 17.1126 20.5683 19.9085 18.0214C21.5939 16.4849 22.9512 14.9693 23.9384 13.516C24.5614 12.5977 25.0519 11.6884 25.389 10.8117C25.7953 9.76259 26 8.73135 26 7.74172C26.003 6.69265 25.7893 5.6733 25.371 4.71339Z" fill="#B3BBC7"/>
</svg>
