<svg width="21" height="21" viewBox="0 0 21 21" fill="none" xmlns="http://www.w3.org/2000/svg">
<path d="M10.7468 0.327393C10.6531 0.224275 10.5388 0.141884 10.4114 0.0855038C10.284 0.029124 10.1462 0 10.0068 0C9.86746 0 9.72965 0.029124 9.60222 0.0855038C9.47478 0.141884 9.36054 0.224275 9.26681 0.327393L0.26681 10.3274C0.134097 10.4705 0.0461538 10.6493 0.0138205 10.8417C-0.0185129 11.0342 0.00617684 11.2319 0.0848463 11.4105C0.163516 11.5891 0.292726 11.7408 0.456551 11.8469C0.620376 11.9529 0.811655 12.0087 1.00681 12.0074H3.00681V19.0074C3.00681 19.2726 3.11217 19.527 3.2997 19.7145C3.48724 19.902 3.74159 20.0074 4.00681 20.0074H16.0068C16.272 20.0074 16.5264 19.902 16.7139 19.7145C16.9015 19.527 17.0068 19.2726 17.0068 19.0074V12.0074H19.0068C19.272 12.0074 19.5264 11.902 19.7139 11.7145C19.9015 11.527 20.0068 11.2726 20.0068 11.0074C20.0087 10.7561 19.9158 10.5133 19.7468 10.3274L10.7468 0.327393Z" fill="white"/>
</svg>
