<svg width="26" height="24" viewBox="0 0 26 24" fill="none" xmlns="http://www.w3.org/2000/svg">
<path d="M15.75 7V4.5C15.75 3.83696 15.4866 3.20107 15.0178 2.73223C14.5489 2.26339 13.913 2 13.25 2H4.5C3.83696 2 3.20107 2.26339 2.73223 2.73223C2.26339 3.20107 2 3.83696 2 4.5V19.5C2 20.163 2.26339 20.7989 2.73223 21.2678C3.20107 21.7366 3.83696 22 4.5 22H13.25C13.913 22 14.5489 21.7366 15.0178 21.2678C15.4866 20.7989 15.75 20.163 15.75 19.5V17" stroke="#FEFEFE" stroke-width="3" stroke-linecap="round" stroke-linejoin="round"/>
<path d="M7 12H24.5L20.75 8.25M20.75 15.75L24.5 12" stroke="#FEFEFE" stroke-width="3" stroke-linecap="round" stroke-linejoin="round"/>
</svg>
